<svg width="108" height="39" viewBox="0 0 108 39" fill="none" xmlns="http://www.w3.org/2000/svg">
<path d="M11.32 38.2C9.77333 38.2 8.02667 38.0667 6.08 37.8C5.01333 37.6667 4.28 37.3867 3.88 36.96C3.48 36.5333 3.30667 35.84 3.36 34.88C3.54667 32.24 3.98667 28.9867 4.68 25.12C5.37333 21.2267 6.21333 17.48 7.2 13.88C7.38667 13.2133 7.76 12.7467 8.32 12.48C8.88 12.2133 9.61333 12.08 10.52 12.08C12.1467 12.08 12.96 12.5333 12.96 13.44C12.96 13.8133 12.88 14.24 12.72 14.72C12.0267 16.8533 11.3333 19.72 10.64 23.32C9.94667 26.8933 9.45333 30.3067 9.16 33.56C9.96 33.64 10.8667 33.68 11.88 33.68C16.5467 33.68 20.0267 32.2667 22.32 29.44C24.64 26.6133 25.8 22.84 25.8 18.12C25.8 14.9467 24.8933 12.4933 23.08 10.76C21.2667 9.02666 18.7067 8.16 15.4 8.16C13.2667 8.16 11.1467 8.49333 9.04 9.16C6.96 9.82667 5.08 10.7067 3.4 11.8C3.05333 12.04 2.68 12.16 2.28 12.16C1.82667 12.16 1.46667 11.9733 1.2 11.6C0.933333 11.2 0.8 10.72 0.8 10.16C0.8 9.52 0.906667 9 1.12 8.6C1.33333 8.17333 1.69333 7.78666 2.2 7.44C4.04 6.18666 6.2 5.24 8.68 4.6C11.16 3.93333 13.5467 3.6 15.84 3.6C19.0933 3.6 21.9067 4.17333 24.28 5.32C26.6533 6.44 28.48 8.09333 29.76 10.28C31.04 12.4667 31.68 15.1067 31.68 18.2C31.68 22.2267 30.88 25.7467 29.28 28.76C27.68 31.7467 25.3467 34.0667 22.28 35.72C19.2133 37.3733 15.56 38.2 11.32 38.2ZM38.4963 38.2C36.8429 38.2 35.5229 37.6 34.5363 36.4C33.5496 35.2 33.0563 33.6267 33.0563 31.68C33.0563 29.5467 33.5496 27.5333 34.5363 25.64C35.5229 23.72 36.8296 22.1867 38.4563 21.04C40.1096 19.8667 41.8563 19.28 43.6963 19.28C44.2829 19.28 44.6696 19.4 44.8563 19.64C45.0696 19.8533 45.2429 20.2533 45.3763 20.84C45.9363 20.7333 46.5229 20.68 47.1363 20.68C48.4429 20.68 49.0963 21.1467 49.0963 22.08C49.0963 22.64 48.8963 23.9733 48.4963 26.08C47.8829 29.1467 47.5763 31.28 47.5763 32.48C47.5763 32.88 47.6696 33.2 47.8563 33.44C48.0696 33.68 48.3363 33.8 48.6563 33.8C49.1629 33.8 49.7763 33.48 50.4963 32.84C51.2163 32.1733 52.1896 31.1067 53.4163 29.64C53.7363 29.2667 54.0963 29.08 54.4963 29.08C54.8429 29.08 55.1096 29.24 55.2963 29.56C55.5096 29.88 55.6163 30.32 55.6163 30.88C55.6163 31.9467 55.3629 32.7733 54.8563 33.36C53.7629 34.72 52.6029 35.8667 51.3763 36.8C50.1496 37.7333 48.9629 38.2 47.8163 38.2C46.9363 38.2 46.1229 37.9067 45.3763 37.32C44.6563 36.7067 44.1096 35.88 43.7363 34.84C42.3496 37.08 40.6029 38.2 38.4963 38.2ZM39.9363 34.16C40.5229 34.16 41.0829 33.8133 41.6163 33.12C42.1496 32.4267 42.5363 31.5067 42.7763 30.36L44.2563 23C43.1363 23.0267 42.0963 23.4533 41.1363 24.28C40.2029 25.08 39.4563 26.1467 38.8963 27.48C38.3363 28.8133 38.0563 30.2267 38.0563 31.72C38.0563 32.5467 38.2163 33.16 38.5363 33.56C38.8829 33.96 39.3496 34.16 39.9363 34.16ZM55.2053 38.2C54.192 38.2 53.472 37.6667 53.0453 36.6C52.6453 35.5333 52.4453 33.8267 52.4453 31.48C52.4453 28.0133 52.9386 24.72 53.9253 21.6C54.1653 20.8267 54.552 20.2667 55.0853 19.92C55.6453 19.5467 56.4186 19.36 57.4053 19.36C57.9386 19.36 58.312 19.4267 58.5253 19.56C58.7386 19.6933 58.8453 19.9467 58.8453 20.32C58.8453 20.7467 58.6453 21.7067 58.2453 23.2C57.9786 24.2667 57.7653 25.2 57.6053 26C57.4453 26.8 57.312 27.7867 57.2053 28.96C58.0853 26.6667 59.072 24.8 60.1653 23.36C61.2586 21.92 62.3253 20.8933 63.3653 20.28C64.432 19.6667 65.4053 19.36 66.2853 19.36C68.0186 19.36 68.8853 20.2267 68.8853 21.96C68.8853 22.3067 68.7653 23.1467 68.5253 24.48C68.312 25.5467 68.2053 26.2133 68.2053 26.48C68.2053 27.4133 68.5386 27.88 69.2053 27.88C69.952 27.88 70.912 27.2933 72.0853 26.12C72.432 25.7733 72.792 25.6 73.1653 25.6C73.512 25.6 73.7786 25.76 73.9653 26.08C74.1786 26.3733 74.2853 26.7733 74.2853 27.28C74.2853 28.2667 74.0186 29.04 73.4853 29.6C72.7386 30.3733 71.8586 31.04 70.8453 31.6C69.8586 32.1333 68.8053 32.4 67.6853 32.4C66.272 32.4 65.192 32.04 64.4453 31.32C63.7253 30.6 63.3653 29.6267 63.3653 28.4C63.3653 28 63.4053 27.6 63.4853 27.2C63.5386 26.6667 63.5653 26.3067 63.5653 26.12C63.5653 25.6933 63.4186 25.48 63.1253 25.48C62.7253 25.48 62.192 25.9333 61.5253 26.84C60.8853 27.72 60.2453 28.8933 59.6053 30.36C58.9653 31.8267 58.4453 33.3733 58.0453 35C57.752 36.2533 57.4053 37.1067 57.0053 37.56C56.632 37.9867 56.032 38.2 55.2053 38.2ZM93.6884 29.08C94.0351 29.08 94.3018 29.24 94.4884 29.56C94.7018 29.88 94.8084 30.32 94.8084 30.88C94.8084 31.9467 94.5551 32.7733 94.0484 33.36C92.8484 34.8267 91.6351 36 90.4084 36.88C89.1818 37.76 87.7284 38.2 86.0484 38.2C83.9951 38.2 82.3418 37.6133 81.0884 36.44C79.8351 35.2667 79.2084 33.7067 79.2084 31.76C79.2084 30.72 79.7418 29.9733 80.8084 29.52C81.9818 29.0133 82.8218 28.48 83.3284 27.92C83.8351 27.3333 84.0884 26.6267 84.0884 25.8C84.0884 25.32 83.9818 24.96 83.7684 24.72C83.5818 24.48 83.3418 24.36 83.0484 24.36C82.3284 24.36 81.5284 24.88 80.6484 25.92C79.7951 26.96 78.9951 28.3067 78.2484 29.96C77.5018 31.5867 76.9151 33.2667 76.4884 35C76.1951 36.2533 75.8484 37.1067 75.4484 37.56C75.0751 37.9867 74.4751 38.2 73.6484 38.2C72.8218 38.2 72.2084 37.9067 71.8084 37.32C71.4351 36.7067 71.1818 35.7733 71.0484 34.52C70.9151 33.2667 70.8484 31.4267 70.8484 29C70.8484 24.8933 71.2618 20.6133 72.0884 16.16C72.9418 11.7067 74.1818 7.97333 75.8084 4.96C77.4618 1.92 79.4351 0.399998 81.7284 0.399998C82.9551 0.399998 83.9418 0.933331 84.6884 2C85.4618 3.04 85.8484 4.4 85.8484 6.08C85.8484 8.77333 85.0618 11.5733 83.4884 14.48C81.9151 17.36 79.3551 20.7333 75.8084 24.6C75.7284 25.9867 75.6884 27.4133 75.6884 28.88C76.9684 25.5467 78.4351 23.1333 80.0884 21.64C81.7418 20.12 83.2884 19.36 84.7284 19.36C86.0618 19.36 87.1284 19.8133 87.9284 20.72C88.7551 21.6267 89.1684 22.7467 89.1684 24.08C89.1684 25.5467 88.7951 26.8933 88.0484 28.12C87.3018 29.3467 86.0218 30.44 84.2084 31.4C84.3151 32.12 84.6351 32.7067 85.1684 33.16C85.7284 33.5867 86.3951 33.8 87.1684 33.8C87.9951 33.8 88.7951 33.48 89.5684 32.84C90.3418 32.2 91.3551 31.1333 92.6084 29.64C92.9284 29.2667 93.2884 29.08 93.6884 29.08ZM80.8884 4.36C80.4084 4.36 79.8751 5.05333 79.2884 6.44C78.7018 7.8 78.1284 9.65333 77.5684 12C77.0351 14.32 76.5951 16.8533 76.2484 19.6C77.9018 17.6533 79.2618 15.5333 80.3284 13.24C81.4218 10.9467 81.9684 8.86667 81.9684 7C81.9684 6.14667 81.8751 5.49333 81.6884 5.04C81.5018 4.58667 81.2351 4.36 80.8884 4.36ZM98.3441 38.2C96.7707 38.2 95.4241 37.8133 94.3041 37.04C93.2107 36.24 92.3841 35.2 91.8241 33.92C91.2641 32.64 90.9841 31.2667 90.9841 29.8C90.9841 27.7733 91.3574 25.9733 92.1041 24.4C92.8774 22.8 93.9174 21.56 95.2241 20.68C96.5307 19.7733 97.9974 19.32 99.6241 19.32C101.197 19.32 102.544 19.72 103.664 20.52C104.784 21.2933 105.624 22.32 106.184 23.6C106.744 24.88 107.024 26.2533 107.024 27.72C107.024 29.7467 106.637 31.56 105.864 33.16C105.091 34.7333 104.037 35.9733 102.704 36.88C101.397 37.76 99.9441 38.2 98.3441 38.2ZM98.7841 33.88C99.6907 33.88 100.451 33.3867 101.064 32.4C101.704 31.4133 102.024 29.9733 102.024 28.08C102.024 26.6133 101.757 25.5067 101.224 24.76C100.691 24.0133 100.051 23.64 99.3041 23.64C98.3441 23.64 97.5441 24.1333 96.9041 25.12C96.2907 26.08 95.9841 27.52 95.9841 29.44C95.9841 30.96 96.2507 32.08 96.7841 32.8C97.3174 33.52 97.9841 33.88 98.7841 33.88Z" fill="#e07777"/>
</svg>
