<svg width="77" height="29" viewBox="0 0 77 29" fill="none" xmlns="http://www.w3.org/2000/svg" class="logo">
<path d="M9.0435 28.16C7.80617 28.16 6.40884 28.0533 4.8515 27.84C3.99817 27.7333 3.4115 27.5093 3.0915 27.168C2.7715 26.8266 2.63284 26.272 2.6755 25.504C2.82484 23.392 3.17684 20.7893 3.7315 17.696C4.28617 14.5813 4.95817 11.584 5.7475 8.70398C5.89684 8.17065 6.1955 7.79731 6.6435 7.58398C7.0915 7.37065 7.67817 7.26398 8.4035 7.26398C9.70484 7.26398 10.3555 7.62665 10.3555 8.35198C10.3555 8.65065 10.2915 8.99198 10.1635 9.37598C9.60884 11.0826 9.05417 13.376 8.4995 16.256C7.94484 19.1146 7.55017 21.8453 7.3155 24.448C7.9555 24.512 8.68084 24.544 9.4915 24.544C13.2248 24.544 16.0088 23.4133 17.8435 21.152C19.6995 18.8906 20.6275 15.872 20.6275 12.096C20.6275 9.55731 19.9022 7.59465 18.4515 6.20798C17.0008 4.82131 14.9528 4.12798 12.3075 4.12798C10.6008 4.12798 8.90484 4.39465 7.2195 4.92798C5.5555 5.46131 4.0515 6.16531 2.7075 7.03998C2.43017 7.23198 2.1315 7.32798 1.8115 7.32798C1.44884 7.32798 1.16084 7.17865 0.947502 6.87998C0.734169 6.55998 0.627502 6.17598 0.627502 5.72798C0.627502 5.21598 0.712836 4.79998 0.883502 4.47998C1.05417 4.13865 1.34217 3.82931 1.7475 3.55198C3.2195 2.54931 4.9475 1.79198 6.9315 1.27998C8.9155 0.746647 10.8248 0.47998 12.6595 0.47998C15.2622 0.47998 17.5128 0.938647 19.4115 1.85598C21.3102 2.75198 22.7715 4.07465 23.7955 5.82398C24.8195 7.57331 25.3315 9.68531 25.3315 12.16C25.3315 15.3813 24.6915 18.1973 23.4115 20.608C22.1315 22.9973 20.2648 24.8533 17.8115 26.176C15.3582 27.4986 12.4355 28.16 9.0435 28.16Z" fill="#E07777"/>
<path d="M41.7455 20.864C42.0228 20.864 42.2362 20.992 42.3855 21.248C42.5562 21.504 42.6415 21.856 42.6415 22.304C42.6415 23.1573 42.4388 23.8186 42.0335 24.288C41.2442 25.248 40.1242 26.1333 38.6735 26.944C37.2442 27.7546 35.7082 28.16 34.0655 28.16C31.8255 28.16 30.0868 27.552 28.8495 26.336C27.6122 25.12 26.9935 23.456 26.9935 21.344C26.9935 19.872 27.3028 18.5066 27.9215 17.248C28.5402 15.968 29.3935 14.9546 30.4815 14.208C31.5908 13.4613 32.8388 13.088 34.2255 13.088C35.4628 13.088 36.4548 13.4613 37.2015 14.208C37.9482 14.9333 38.3215 15.9253 38.3215 17.184C38.3215 18.656 37.7882 19.9253 36.7215 20.992C35.6762 22.0373 33.8948 22.8693 31.3775 23.488C31.9108 24.4693 32.9242 24.96 34.4175 24.96C35.3775 24.96 36.4655 24.6293 37.6815 23.968C38.9188 23.2853 39.9855 22.4 40.8815 21.312C41.1375 21.0133 41.4255 20.864 41.7455 20.864ZM33.6815 16.224C32.8922 16.224 32.2202 16.6826 31.6655 17.6C31.1322 18.5173 30.8655 19.6266 30.8655 20.928V20.992C32.1242 20.6933 33.1162 20.2453 33.8415 19.648C34.5668 19.0506 34.9295 18.3573 34.9295 17.568C34.9295 17.1626 34.8122 16.8426 34.5775 16.608C34.3642 16.352 34.0655 16.224 33.6815 16.224Z" fill="#E07777"/>
<path d="M42.308 28.16C41.4973 28.16 40.9213 27.7333 40.58 26.88C40.26 26.0266 40.1 24.6613 40.1 22.784C40.1 20.0106 40.4947 17.376 41.284 14.88C41.476 14.2613 41.7853 13.8133 42.212 13.536C42.66 13.2373 43.2787 13.088 44.068 13.088C44.4947 13.088 44.7933 13.1413 44.964 13.248C45.1347 13.3546 45.22 13.5573 45.22 13.856C45.22 14.1973 45.06 14.9653 44.74 16.16C44.5267 17.0133 44.356 17.76 44.228 18.4C44.1 19.0186 43.9933 19.7973 43.908 20.736C44.484 19.072 45.1667 17.664 45.956 16.512C46.7667 15.36 47.588 14.5066 48.42 13.952C49.2733 13.376 50.0733 13.088 50.82 13.088C51.5667 13.088 52.0893 13.2586 52.388 13.6C52.708 13.9413 52.868 14.464 52.868 15.168C52.868 15.8506 52.6653 17.088 52.26 18.88C52.0893 19.648 51.972 20.224 51.908 20.608C52.9747 17.984 54.1587 16.0746 55.46 14.88C56.7613 13.6853 57.9773 13.088 59.108 13.088C60.4947 13.088 61.188 13.7813 61.188 15.168C61.188 16 60.9533 17.504 60.484 19.68C60.0787 21.536 59.876 22.7626 59.876 23.36C59.876 24.2133 60.1853 24.64 60.804 24.64C61.2307 24.64 61.732 24.384 62.308 23.872C62.9053 23.3386 63.6947 22.4853 64.676 21.312C64.932 21.0133 65.22 20.864 65.54 20.864C65.8173 20.864 66.0307 20.992 66.18 21.248C66.3507 21.504 66.436 21.856 66.436 22.304C66.436 23.1573 66.2333 23.8186 65.828 24.288C64.9107 25.4186 63.9187 26.3466 62.852 27.072C61.8067 27.7973 60.612 28.16 59.268 28.16C58.18 28.16 57.3587 27.8506 56.804 27.232C56.2493 26.592 55.972 25.6746 55.972 24.48C55.972 23.8826 56.1213 22.816 56.42 21.28C56.6973 19.936 56.836 19.008 56.836 18.496C56.836 18.1546 56.7187 17.984 56.484 17.984C56.2067 17.984 55.812 18.3466 55.3 19.072C54.788 19.776 54.276 20.7146 53.764 21.888C53.252 23.0613 52.836 24.2986 52.516 25.6C52.2813 26.624 52.004 27.3066 51.684 27.648C51.3853 27.9893 50.8947 28.16 50.212 28.16C49.508 28.16 48.9747 27.8293 48.612 27.168C48.2707 26.4853 48.1 25.664 48.1 24.704C48.1 23.8933 48.2067 22.72 48.42 21.184C48.5907 19.8186 48.676 18.9226 48.676 18.496C48.676 18.1546 48.5587 17.984 48.324 17.984C48.004 17.984 47.5987 18.368 47.108 19.136C46.6173 19.904 46.1373 20.8853 45.668 22.08C45.22 23.2746 44.8573 24.448 44.58 25.6C44.3453 26.6026 44.068 27.2853 43.748 27.648C43.4493 27.9893 42.9693 28.16 42.308 28.16Z" fill="#E07777"/>
<path d="M69.2565 28.16C67.9978 28.16 66.9205 27.8506 66.0245 27.232C65.1498 26.592 64.4885 25.76 64.0405 24.736C63.5925 23.712 63.3685 22.6133 63.3685 21.44C63.3685 19.8186 63.6672 18.3786 64.2645 17.12C64.8832 15.84 65.7152 14.848 66.7605 14.144C67.8058 13.4186 68.9792 13.056 70.2805 13.056C71.5392 13.056 72.6165 13.376 73.5125 14.016C74.4085 14.6346 75.0805 15.456 75.5285 16.48C75.9765 17.504 76.2005 18.6026 76.2005 19.776C76.2005 21.3973 75.8912 22.848 75.2725 24.128C74.6538 25.3866 73.8112 26.3786 72.7445 27.104C71.6992 27.808 70.5365 28.16 69.2565 28.16ZM69.6085 24.704C70.3338 24.704 70.9418 24.3093 71.4325 23.52C71.9445 22.7306 72.2005 21.5786 72.2005 20.064C72.2005 18.8906 71.9872 18.0053 71.5605 17.408C71.1338 16.8106 70.6218 16.512 70.0245 16.512C69.2565 16.512 68.6165 16.9066 68.1045 17.696C67.6138 18.464 67.3685 19.616 67.3685 21.152C67.3685 22.368 67.5818 23.264 68.0085 23.84C68.4352 24.416 68.9685 24.704 69.6085 24.704Z" fill="#E07777"/>
</svg>
